<svg xmlns="http://www.w3.org/2000/svg" xmlns:xlink="http://www.w3.org/1999/xlink" width="40" zoomAndPan="magnify" viewBox="0 0 30 30.000001" height="40" preserveAspectRatio="xMidYMid meet" version="1.0"><defs><g/><clipPath id="2a3f1fd9b2"><path d="M 0.484375 0 L 29.515625 0 L 29.515625 29.03125 L 0.484375 29.03125 Z M 0.484375 0 " clip-rule="nonzero"/></clipPath></defs><g clip-path="url(#2a3f1fd9b2)"><path fill="#ffffff" d="M 0.484375 0 L 29.515625 0 L 29.515625 29.03125 L 0.484375 29.03125 Z M 0.484375 0 " fill-opacity="1" fill-rule="nonzero"/><path fill="#ffffff" d="M 0.484375 0 L 29.515625 0 L 29.515625 29.03125 L 0.484375 29.03125 Z M 0.484375 0 " fill-opacity="1" fill-rule="nonzero"/></g><g fill="#114c93" fill-opacity="1"><g transform="translate(6.18508, 17.767793)"><g><path d="M 7.875 0 L 6.859375 0 L 6.59375 -3.421875 C 6.488281 -4.765625 6.425781 -5.796875 6.40625 -6.515625 L 4.78125 -0.859375 L 3.796875 -0.859375 L 2.0625 -6.515625 C 2.0625 -5.597656 2.015625 -4.539062 1.921875 -3.34375 L 1.671875 0 L 0.6875 0 L 1.3125 -7.578125 L 2.71875 -7.578125 L 4.3125 -2.0625 L 5.828125 -7.578125 L 7.25 -7.578125 Z M 7.875 0 "/></g></g></g><g fill="#114c93" fill-opacity="1"><g transform="translate(14.742062, 17.767793)"><g><path d="M 8.8125 -7.578125 L 7.265625 0 L 5.921875 0 L 4.53125 -6.34375 L 3.125 0 L 1.8125 0 L 0.28125 -7.578125 L 1.296875 -7.578125 L 2.515625 -0.90625 L 3.984375 -7.578125 L 5.09375 -7.578125 L 6.59375 -0.90625 L 7.859375 -7.578125 Z M 8.8125 -7.578125 "/></g></g></g></svg>