<svg xmlns="http://www.w3.org/2000/svg" xmlns:xlink="http://www.w3.org/1999/xlink" width="500" zoomAndPan="magnify" viewBox="0 0 375 374.999991" height="500" preserveAspectRatio="xMidYMid meet" version="1.0"><defs><g/><clipPath id="1f585925d5"><path d="M 112.5 115 L 226 115 L 226 166 L 112.5 166 Z M 112.5 115 " clip-rule="nonzero"/></clipPath></defs><rect x="-37.5" width="450" fill="#ffffff" y="-37.499999" height="449.999989" fill-opacity="1"/><rect x="-37.5" width="450" fill="#0e2443" y="-37.499999" height="449.999989" fill-opacity="1"/><g clip-path="url(#1f585925d5)"><path fill="#f1f7fe" d="M 225.910156 140.152344 C 225.910156 126.433594 214.71875 115.242188 200.984375 115.242188 C 187.246094 115.242188 176.054688 126.414062 176.054688 140.152344 C 176.054688 141.601562 176.191406 143.066406 176.425781 144.484375 C 176.644531 145.664062 177.773438 146.472656 178.953125 146.234375 C 180.136719 146.035156 180.925781 144.90625 180.707031 143.726562 C 180.488281 142.546875 180.386719 141.347656 180.386719 140.152344 C 180.386719 128.808594 189.625 119.574219 200.964844 119.574219 C 212.308594 119.574219 221.546875 128.808594 221.546875 140.152344 C 221.546875 151.496094 212.308594 160.730469 200.964844 160.730469 L 114.085938 160.730469 C 112.886719 160.730469 111.925781 161.707031 111.925781 162.90625 C 111.925781 164.101562 112.90625 165.078125 114.085938 165.078125 L 201 165.078125 C 214.71875 165.0625 225.910156 153.886719 225.910156 140.152344 Z M 225.910156 140.152344 " fill-opacity="1" fill-rule="nonzero"/></g><path fill="#f1f7fe" d="M 235.347656 171.464844 L 164.15625 171.464844 C 162.960938 171.464844 161.984375 172.425781 161.984375 173.640625 C 161.984375 174.820312 162.960938 175.78125 164.15625 175.78125 L 235.347656 175.78125 C 243.472656 175.78125 250.113281 182.4375 250.113281 190.546875 C 250.113281 198.703125 243.472656 205.324219 235.347656 205.324219 C 227.207031 205.324219 220.566406 198.703125 220.566406 190.546875 C 220.566406 188.335938 221.054688 186.195312 222.015625 184.207031 C 222.523438 183.128906 222.085938 181.832031 220.988281 181.308594 C 219.925781 180.820312 218.613281 181.242188 218.089844 182.335938 C 216.859375 184.933594 216.234375 187.679688 216.234375 190.546875 C 216.234375 201.113281 224.816406 209.675781 235.347656 209.675781 C 245.882812 209.675781 254.445312 201.113281 254.445312 190.546875 C 254.425781 180.027344 245.882812 171.464844 235.347656 171.464844 Z M 235.347656 171.464844 " fill-opacity="1" fill-rule="nonzero"/><path fill="#f1f7fe" d="M 146.175781 171.464844 L 130.886719 171.464844 C 129.691406 171.464844 128.714844 172.425781 128.714844 173.640625 C 128.714844 174.820312 129.691406 175.78125 130.886719 175.78125 L 146.175781 175.78125 C 150.234375 175.78125 153.554688 179.101562 153.554688 183.179688 C 153.554688 187.242188 150.234375 190.546875 146.175781 190.546875 C 142.113281 190.546875 138.808594 187.257812 138.792969 183.179688 C 138.792969 182.066406 139.046875 180.972656 139.515625 179.996094 C 140.039062 178.914062 139.585938 177.617188 138.503906 177.09375 C 137.425781 176.605469 136.128906 177.027344 135.605469 178.125 C 134.847656 179.691406 134.460938 181.410156 134.460938 183.179688 C 134.460938 189.617188 139.71875 194.875 146.175781 194.875 C 152.628906 194.875 157.886719 189.617188 157.886719 183.179688 C 157.886719 176.707031 152.628906 171.464844 146.175781 171.464844 Z M 146.175781 171.464844 " fill-opacity="1" fill-rule="nonzero"/><path fill="#f1f7fe" d="M 246.894531 136.089844 C 238.886719 136.089844 232.414062 142.578125 232.414062 150.585938 C 232.414062 152.757812 232.886719 154.863281 233.816406 156.835938 C 234.335938 157.914062 235.617188 158.355469 236.714844 157.847656 C 237.792969 157.324219 238.265625 156.027344 237.726562 154.949219 C 237.066406 153.585938 236.746094 152.101562 236.746094 150.585938 C 236.746094 144.972656 241.316406 140.421875 246.910156 140.421875 C 252.503906 140.421875 257.074219 144.972656 257.074219 150.585938 C 257.074219 156.179688 252.503906 160.730469 246.910156 160.730469 L 227.15625 160.730469 C 225.960938 160.730469 224.984375 161.707031 224.984375 162.90625 C 224.984375 164.101562 225.960938 165.078125 227.15625 165.078125 L 246.894531 165.078125 C 254.882812 165.078125 261.371094 158.574219 261.386719 150.601562 C 261.386719 142.578125 254.882812 136.089844 246.894531 136.089844 Z M 246.894531 136.089844 " fill-opacity="1" fill-rule="nonzero"/><g fill="#f1f7fe" fill-opacity="1"><g transform="translate(52.593751, 251.045434)"><g><path d="M 30.078125 0 L 26.203125 0 L 25.203125 -13.0625 C 24.773438 -18.1875 24.535156 -22.117188 24.484375 -24.859375 L 18.234375 -3.28125 L 14.484375 -3.28125 L 7.890625 -24.90625 C 7.890625 -21.40625 7.707031 -17.359375 7.34375 -12.765625 L 6.390625 0 L 2.609375 0 L 5 -28.9375 L 10.375 -28.9375 L 16.46875 -7.890625 L 22.265625 -28.9375 L 27.671875 -28.9375 Z M 30.078125 0 "/></g></g></g><g fill="#f1f7fe" fill-opacity="1"><g transform="translate(85.269744, 251.045434)"><g><path d="M 12.3125 -22.640625 C 15.414062 -22.640625 17.828125 -21.601562 19.546875 -19.53125 C 21.273438 -17.457031 22.140625 -14.644531 22.140625 -11.09375 C 22.140625 -8.789062 21.742188 -6.765625 20.953125 -5.015625 C 20.171875 -3.265625 19.035156 -1.90625 17.546875 -0.9375 C 16.066406 0.0195312 14.304688 0.5 12.265625 0.5 C 9.160156 0.5 6.738281 -0.535156 5 -2.609375 C 3.257812 -4.679688 2.390625 -7.492188 2.390625 -11.046875 C 2.390625 -13.335938 2.78125 -15.359375 3.5625 -17.109375 C 4.351562 -18.859375 5.488281 -20.21875 6.96875 -21.1875 C 8.457031 -22.15625 10.238281 -22.640625 12.3125 -22.640625 Z M 12.3125 -19.53125 C 8.46875 -19.53125 6.546875 -16.703125 6.546875 -11.046875 C 6.546875 -5.421875 8.453125 -2.609375 12.265625 -2.609375 C 16.066406 -2.609375 17.96875 -5.4375 17.96875 -11.09375 C 17.96875 -16.71875 16.082031 -19.53125 12.3125 -19.53125 Z M 12.3125 -19.53125 "/></g></g></g><g fill="#f1f7fe" fill-opacity="1"><g transform="translate(109.797738, 251.045434)"><g><path d="M 15.15625 -1.015625 C 13.707031 -0.00390625 12.054688 0.5 10.203125 0.5 C 8.328125 0.5 6.863281 -0.0351562 5.8125 -1.109375 C 4.757812 -2.191406 4.234375 -3.753906 4.234375 -5.796875 L 4.234375 -19.15625 L 0.375 -19.15625 L 0.375 -22.140625 L 4.234375 -22.140625 L 4.234375 -27.125 L 8.109375 -27.59375 L 8.109375 -22.140625 L 13.359375 -22.140625 L 12.9375 -19.15625 L 8.109375 -19.15625 L 8.109375 -5.96875 C 8.109375 -4.8125 8.3125 -3.972656 8.71875 -3.453125 C 9.125 -2.941406 9.800781 -2.6875 10.75 -2.6875 C 11.613281 -2.6875 12.59375 -2.976562 13.6875 -3.5625 Z M 15.15625 -1.015625 "/></g></g></g><g fill="#f1f7fe" fill-opacity="1"><g transform="translate(124.95974, 251.045434)"><g><path d="M 7.859375 -22.140625 L 7.859375 0 L 3.984375 0 L 3.984375 -22.140625 Z M 5.890625 -32.765625 C 6.703125 -32.765625 7.359375 -32.507812 7.859375 -32 C 8.359375 -31.5 8.609375 -30.867188 8.609375 -30.109375 C 8.609375 -29.359375 8.359375 -28.738281 7.859375 -28.25 C 7.359375 -27.757812 6.703125 -27.515625 5.890625 -27.515625 C 5.097656 -27.515625 4.453125 -27.757812 3.953125 -28.25 C 3.453125 -28.738281 3.203125 -29.359375 3.203125 -30.109375 C 3.203125 -30.867188 3.453125 -31.5 3.953125 -32 C 4.453125 -32.507812 5.097656 -32.765625 5.890625 -32.765625 Z M 5.890625 -32.765625 "/></g></g></g><g fill="#f1f7fe" fill-opacity="1"><g transform="translate(136.803733, 251.045434)"><g><path d="M 12.3125 -22.640625 C 15.414062 -22.640625 17.828125 -21.601562 19.546875 -19.53125 C 21.273438 -17.457031 22.140625 -14.644531 22.140625 -11.09375 C 22.140625 -8.789062 21.742188 -6.765625 20.953125 -5.015625 C 20.171875 -3.265625 19.035156 -1.90625 17.546875 -0.9375 C 16.066406 0.0195312 14.304688 0.5 12.265625 0.5 C 9.160156 0.5 6.738281 -0.535156 5 -2.609375 C 3.257812 -4.679688 2.390625 -7.492188 2.390625 -11.046875 C 2.390625 -13.335938 2.78125 -15.359375 3.5625 -17.109375 C 4.351562 -18.859375 5.488281 -20.21875 6.96875 -21.1875 C 8.457031 -22.15625 10.238281 -22.640625 12.3125 -22.640625 Z M 12.3125 -19.53125 C 8.46875 -19.53125 6.546875 -16.703125 6.546875 -11.046875 C 6.546875 -5.421875 8.453125 -2.609375 12.265625 -2.609375 C 16.066406 -2.609375 17.96875 -5.4375 17.96875 -11.09375 C 17.96875 -16.71875 16.082031 -19.53125 12.3125 -19.53125 Z M 12.3125 -19.53125 "/></g></g></g><g fill="#f1f7fe" fill-opacity="1"><g transform="translate(161.331728, 251.045434)"><g><path d="M 14.40625 -22.640625 C 16.425781 -22.640625 18 -22.035156 19.125 -20.828125 C 20.257812 -19.628906 20.828125 -17.976562 20.828125 -15.875 L 20.828125 0 L 16.96875 0 L 16.96875 -15.328125 C 16.96875 -16.898438 16.671875 -18.003906 16.078125 -18.640625 C 15.492188 -19.285156 14.628906 -19.609375 13.484375 -19.609375 C 12.304688 -19.609375 11.269531 -19.269531 10.375 -18.59375 C 9.476562 -17.925781 8.640625 -16.960938 7.859375 -15.703125 L 7.859375 0 L 3.984375 0 L 3.984375 -22.140625 L 7.3125 -22.140625 L 7.640625 -18.859375 C 8.421875 -20.035156 9.394531 -20.957031 10.5625 -21.625 C 11.726562 -22.300781 13.007812 -22.640625 14.40625 -22.640625 Z M 14.40625 -22.640625 "/></g></g></g><g fill="#f1f7fe" fill-opacity="1"><g transform="translate(185.943721, 251.045434)"><g><path d="M 33.640625 -28.9375 L 27.765625 0 L 22.640625 0 L 17.296875 -24.234375 L 11.921875 0 L 6.9375 0 L 1.046875 -28.9375 L 4.953125 -28.9375 L 9.625 -3.484375 L 15.203125 -28.9375 L 19.453125 -28.9375 L 25.15625 -3.484375 L 29.984375 -28.9375 Z M 33.640625 -28.9375 "/></g></g></g><g fill="#f1f7fe" fill-opacity="1"><g transform="translate(220.635717, 251.045434)"><g><path d="M 7.859375 -22.140625 L 7.859375 0 L 3.984375 0 L 3.984375 -22.140625 Z M 5.890625 -32.765625 C 6.703125 -32.765625 7.359375 -32.507812 7.859375 -32 C 8.359375 -31.5 8.609375 -30.867188 8.609375 -30.109375 C 8.609375 -29.359375 8.359375 -28.738281 7.859375 -28.25 C 7.359375 -27.757812 6.703125 -27.515625 5.890625 -27.515625 C 5.097656 -27.515625 4.453125 -27.757812 3.953125 -28.25 C 3.453125 -28.738281 3.203125 -29.359375 3.203125 -30.109375 C 3.203125 -30.867188 3.453125 -31.5 3.953125 -32 C 4.453125 -32.507812 5.097656 -32.765625 5.890625 -32.765625 Z M 5.890625 -32.765625 "/></g></g></g><g fill="#f1f7fe" fill-opacity="1"><g transform="translate(232.47971, 251.045434)"><g><path d="M 14.40625 -22.640625 C 16.425781 -22.640625 18 -22.035156 19.125 -20.828125 C 20.257812 -19.628906 20.828125 -17.976562 20.828125 -15.875 L 20.828125 0 L 16.96875 0 L 16.96875 -15.328125 C 16.96875 -16.898438 16.671875 -18.003906 16.078125 -18.640625 C 15.492188 -19.285156 14.628906 -19.609375 13.484375 -19.609375 C 12.304688 -19.609375 11.269531 -19.269531 10.375 -18.59375 C 9.476562 -17.925781 8.640625 -16.960938 7.859375 -15.703125 L 7.859375 0 L 3.984375 0 L 3.984375 -22.140625 L 7.3125 -22.140625 L 7.640625 -18.859375 C 8.421875 -20.035156 9.394531 -20.957031 10.5625 -21.625 C 11.726562 -22.300781 13.007812 -22.640625 14.40625 -22.640625 Z M 14.40625 -22.640625 "/></g></g></g><g fill="#f1f7fe" fill-opacity="1"><g transform="translate(257.091693, 251.045434)"><g><path d="M 21.125 -31.03125 L 21.125 0 L 17.71875 0 L 17.34375 -3.0625 C 16.613281 -1.945312 15.703125 -1.070312 14.609375 -0.4375 C 13.523438 0.1875 12.3125 0.5 10.96875 0.5 C 8.332031 0.5 6.28125 -0.535156 4.8125 -2.609375 C 3.34375 -4.679688 2.609375 -7.46875 2.609375 -10.96875 C 2.609375 -13.226562 2.957031 -15.238281 3.65625 -17 C 4.351562 -18.769531 5.359375 -20.148438 6.671875 -21.140625 C 7.992188 -22.140625 9.535156 -22.640625 11.296875 -22.640625 C 13.566406 -22.640625 15.554688 -21.726562 17.265625 -19.90625 L 17.265625 -31.5 Z M 11.796875 -2.5625 C 12.972656 -2.5625 13.984375 -2.832031 14.828125 -3.375 C 15.671875 -3.925781 16.484375 -4.75 17.265625 -5.84375 L 17.265625 -16.671875 C 16.535156 -17.628906 15.753906 -18.351562 14.921875 -18.84375 C 14.097656 -19.332031 13.171875 -19.578125 12.140625 -19.578125 C 10.429688 -19.578125 9.109375 -18.859375 8.171875 -17.421875 C 7.234375 -15.992188 6.765625 -13.867188 6.765625 -11.046875 C 6.765625 -8.191406 7.195312 -6.0625 8.0625 -4.65625 C 8.925781 -3.257812 10.171875 -2.5625 11.796875 -2.5625 Z M 11.796875 -2.5625 "/></g></g></g><g fill="#f1f7fe" fill-opacity="1"><g transform="translate(282.207673, 251.045434)"><g><path d="M 24.03125 -9.28125 C 24.03125 -7.351562 23.628906 -5.648438 22.828125 -4.171875 C 22.023438 -2.703125 20.859375 -1.554688 19.328125 -0.734375 C 17.804688 0.0859375 15.984375 0.5 13.859375 0.5 C 10.640625 0.5 8.15625 -0.382812 6.40625 -2.15625 C 4.65625 -3.9375 3.78125 -6.3125 3.78125 -9.28125 L 3.78125 -28.9375 L 7.765625 -28.9375 L 7.765625 -9.578125 C 7.765625 -7.335938 8.269531 -5.65625 9.28125 -4.53125 C 10.289062 -3.414062 11.816406 -2.859375 13.859375 -2.859375 C 15.929688 -2.859375 17.46875 -3.410156 18.46875 -4.515625 C 19.476562 -5.617188 19.984375 -7.304688 19.984375 -9.578125 L 19.984375 -28.9375 L 24.03125 -28.9375 Z M 24.03125 -9.28125 "/></g></g></g><g fill="#f1f7fe" fill-opacity="1"><g transform="translate(310.011665, 251.045434)"><g><path d="M 8.1875 -28.9375 L 8.1875 0 L 4.203125 0 L 4.203125 -28.9375 Z M 8.1875 -28.9375 "/></g></g></g></svg>