<svg xmlns="http://www.w3.org/2000/svg" xmlns:xlink="http://www.w3.org/1999/xlink" width="500" zoomAndPan="magnify" viewBox="0 0 375 374.999991" height="500" preserveAspectRatio="xMidYMid meet" version="1.0"><defs><g/><clipPath id="a14ad7776e"><path d="M 112.5 108 L 226 108 L 226 159 L 112.5 159 Z M 112.5 108 " clip-rule="nonzero"/></clipPath></defs><rect x="-37.5" width="450" fill="#ffffff" y="-37.499999" height="449.999989" fill-opacity="1"/><rect x="-37.5" width="450" fill="#ffffff" y="-37.499999" height="449.999989" fill-opacity="1"/><g clip-path="url(#a14ad7776e)"><path fill="#114c93" d="M 225.910156 133.449219 C 225.910156 119.730469 214.71875 108.539062 200.984375 108.539062 C 187.246094 108.539062 176.054688 119.710938 176.054688 133.449219 C 176.054688 134.898438 176.191406 136.363281 176.425781 137.78125 C 176.644531 138.960938 177.773438 139.769531 178.953125 139.53125 C 180.136719 139.328125 180.925781 138.199219 180.707031 137.019531 C 180.488281 135.839844 180.386719 134.644531 180.386719 133.449219 C 180.386719 122.105469 189.625 112.871094 200.964844 112.871094 C 212.308594 112.871094 221.546875 122.105469 221.546875 133.449219 C 221.546875 144.789062 212.308594 154.027344 200.964844 154.027344 L 114.085938 154.027344 C 112.886719 154.027344 111.925781 155.003906 111.925781 156.199219 C 111.925781 157.398438 112.90625 158.375 114.085938 158.375 L 201 158.375 C 214.71875 158.359375 225.910156 147.183594 225.910156 133.449219 Z M 225.910156 133.449219 " fill-opacity="1" fill-rule="nonzero"/></g><path fill="#114c93" d="M 235.347656 164.761719 L 164.15625 164.761719 C 162.960938 164.761719 161.984375 165.722656 161.984375 166.9375 C 161.984375 168.117188 162.960938 169.078125 164.15625 169.078125 L 235.347656 169.078125 C 243.472656 169.078125 250.113281 175.734375 250.113281 183.839844 C 250.113281 192 243.472656 198.621094 235.347656 198.621094 C 227.207031 198.621094 220.566406 192 220.566406 183.839844 C 220.566406 181.632812 221.054688 179.492188 222.015625 177.503906 C 222.523438 176.425781 222.085938 175.128906 220.988281 174.605469 C 219.925781 174.117188 218.613281 174.539062 218.089844 175.632812 C 216.859375 178.230469 216.234375 180.976562 216.234375 183.839844 C 216.234375 194.410156 224.816406 202.96875 235.347656 202.96875 C 245.882812 202.96875 254.445312 194.410156 254.445312 183.839844 C 254.425781 173.324219 245.882812 164.761719 235.347656 164.761719 Z M 235.347656 164.761719 " fill-opacity="1" fill-rule="nonzero"/><path fill="#114c93" d="M 146.175781 164.761719 L 130.886719 164.761719 C 129.691406 164.761719 128.714844 165.722656 128.714844 166.9375 C 128.714844 168.117188 129.691406 169.078125 130.886719 169.078125 L 146.175781 169.078125 C 150.234375 169.078125 153.554688 172.398438 153.554688 176.476562 C 153.554688 180.539062 150.234375 183.839844 146.175781 183.839844 C 142.113281 183.839844 138.808594 180.554688 138.792969 176.476562 C 138.792969 175.363281 139.046875 174.269531 139.515625 173.289062 C 140.039062 172.210938 139.585938 170.914062 138.503906 170.390625 C 137.425781 169.902344 136.128906 170.324219 135.605469 171.417969 C 134.847656 172.988281 134.460938 174.707031 134.460938 176.476562 C 134.460938 182.914062 139.71875 188.171875 146.175781 188.171875 C 152.628906 188.171875 157.886719 182.914062 157.886719 176.476562 C 157.886719 170.003906 152.628906 164.761719 146.175781 164.761719 Z M 146.175781 164.761719 " fill-opacity="1" fill-rule="nonzero"/><path fill="#114c93" d="M 246.894531 129.386719 C 238.886719 129.386719 232.414062 135.875 232.414062 143.878906 C 232.414062 146.054688 232.886719 148.160156 233.816406 150.132812 C 234.335938 151.210938 235.617188 151.648438 236.714844 151.144531 C 237.792969 150.621094 238.265625 149.324219 237.726562 148.246094 C 237.066406 146.878906 236.746094 145.398438 236.746094 143.878906 C 236.746094 138.269531 241.316406 133.71875 246.910156 133.71875 C 252.503906 133.71875 257.074219 138.269531 257.074219 143.878906 C 257.074219 149.476562 252.503906 154.027344 246.910156 154.027344 L 227.15625 154.027344 C 225.960938 154.027344 224.984375 155.003906 224.984375 156.199219 C 224.984375 157.398438 225.960938 158.375 227.15625 158.375 L 246.894531 158.375 C 254.882812 158.375 261.371094 151.871094 261.386719 143.898438 C 261.386719 135.875 254.882812 129.386719 246.894531 129.386719 Z M 246.894531 129.386719 " fill-opacity="1" fill-rule="nonzero"/><g fill="#114c93" fill-opacity="1"><g transform="translate(52.593751, 244.341692)"><g><path d="M 30.078125 0 L 26.203125 0 L 25.203125 -13.0625 C 24.773438 -18.1875 24.535156 -22.117188 24.484375 -24.859375 L 18.234375 -3.28125 L 14.484375 -3.28125 L 7.890625 -24.90625 C 7.890625 -21.40625 7.707031 -17.359375 7.34375 -12.765625 L 6.390625 0 L 2.609375 0 L 5 -28.9375 L 10.375 -28.9375 L 16.46875 -7.890625 L 22.265625 -28.9375 L 27.671875 -28.9375 Z M 30.078125 0 "/></g></g></g><g fill="#114c93" fill-opacity="1"><g transform="translate(85.269744, 244.341692)"><g><path d="M 12.3125 -22.640625 C 15.414062 -22.640625 17.828125 -21.601562 19.546875 -19.53125 C 21.273438 -17.457031 22.140625 -14.644531 22.140625 -11.09375 C 22.140625 -8.789062 21.742188 -6.765625 20.953125 -5.015625 C 20.171875 -3.265625 19.035156 -1.90625 17.546875 -0.9375 C 16.066406 0.0195312 14.304688 0.5 12.265625 0.5 C 9.160156 0.5 6.738281 -0.535156 5 -2.609375 C 3.257812 -4.679688 2.390625 -7.492188 2.390625 -11.046875 C 2.390625 -13.335938 2.78125 -15.359375 3.5625 -17.109375 C 4.351562 -18.859375 5.488281 -20.21875 6.96875 -21.1875 C 8.457031 -22.15625 10.238281 -22.640625 12.3125 -22.640625 Z M 12.3125 -19.53125 C 8.46875 -19.53125 6.546875 -16.703125 6.546875 -11.046875 C 6.546875 -5.421875 8.453125 -2.609375 12.265625 -2.609375 C 16.066406 -2.609375 17.96875 -5.4375 17.96875 -11.09375 C 17.96875 -16.71875 16.082031 -19.53125 12.3125 -19.53125 Z M 12.3125 -19.53125 "/></g></g></g><g fill="#114c93" fill-opacity="1"><g transform="translate(109.797738, 244.341692)"><g><path d="M 15.15625 -1.015625 C 13.707031 -0.00390625 12.054688 0.5 10.203125 0.5 C 8.328125 0.5 6.863281 -0.0351562 5.8125 -1.109375 C 4.757812 -2.191406 4.234375 -3.753906 4.234375 -5.796875 L 4.234375 -19.15625 L 0.375 -19.15625 L 0.375 -22.140625 L 4.234375 -22.140625 L 4.234375 -27.125 L 8.109375 -27.59375 L 8.109375 -22.140625 L 13.359375 -22.140625 L 12.9375 -19.15625 L 8.109375 -19.15625 L 8.109375 -5.96875 C 8.109375 -4.8125 8.3125 -3.972656 8.71875 -3.453125 C 9.125 -2.941406 9.800781 -2.6875 10.75 -2.6875 C 11.613281 -2.6875 12.59375 -2.976562 13.6875 -3.5625 Z M 15.15625 -1.015625 "/></g></g></g><g fill="#114c93" fill-opacity="1"><g transform="translate(124.95974, 244.341692)"><g><path d="M 7.859375 -22.140625 L 7.859375 0 L 3.984375 0 L 3.984375 -22.140625 Z M 5.890625 -32.765625 C 6.703125 -32.765625 7.359375 -32.507812 7.859375 -32 C 8.359375 -31.5 8.609375 -30.867188 8.609375 -30.109375 C 8.609375 -29.359375 8.359375 -28.738281 7.859375 -28.25 C 7.359375 -27.757812 6.703125 -27.515625 5.890625 -27.515625 C 5.097656 -27.515625 4.453125 -27.757812 3.953125 -28.25 C 3.453125 -28.738281 3.203125 -29.359375 3.203125 -30.109375 C 3.203125 -30.867188 3.453125 -31.5 3.953125 -32 C 4.453125 -32.507812 5.097656 -32.765625 5.890625 -32.765625 Z M 5.890625 -32.765625 "/></g></g></g><g fill="#114c93" fill-opacity="1"><g transform="translate(136.803733, 244.341692)"><g><path d="M 12.3125 -22.640625 C 15.414062 -22.640625 17.828125 -21.601562 19.546875 -19.53125 C 21.273438 -17.457031 22.140625 -14.644531 22.140625 -11.09375 C 22.140625 -8.789062 21.742188 -6.765625 20.953125 -5.015625 C 20.171875 -3.265625 19.035156 -1.90625 17.546875 -0.9375 C 16.066406 0.0195312 14.304688 0.5 12.265625 0.5 C 9.160156 0.5 6.738281 -0.535156 5 -2.609375 C 3.257812 -4.679688 2.390625 -7.492188 2.390625 -11.046875 C 2.390625 -13.335938 2.78125 -15.359375 3.5625 -17.109375 C 4.351562 -18.859375 5.488281 -20.21875 6.96875 -21.1875 C 8.457031 -22.15625 10.238281 -22.640625 12.3125 -22.640625 Z M 12.3125 -19.53125 C 8.46875 -19.53125 6.546875 -16.703125 6.546875 -11.046875 C 6.546875 -5.421875 8.453125 -2.609375 12.265625 -2.609375 C 16.066406 -2.609375 17.96875 -5.4375 17.96875 -11.09375 C 17.96875 -16.71875 16.082031 -19.53125 12.3125 -19.53125 Z M 12.3125 -19.53125 "/></g></g></g><g fill="#114c93" fill-opacity="1"><g transform="translate(161.331728, 244.341692)"><g><path d="M 14.40625 -22.640625 C 16.425781 -22.640625 18 -22.035156 19.125 -20.828125 C 20.257812 -19.628906 20.828125 -17.976562 20.828125 -15.875 L 20.828125 0 L 16.96875 0 L 16.96875 -15.328125 C 16.96875 -16.898438 16.671875 -18.003906 16.078125 -18.640625 C 15.492188 -19.285156 14.628906 -19.609375 13.484375 -19.609375 C 12.304688 -19.609375 11.269531 -19.269531 10.375 -18.59375 C 9.476562 -17.925781 8.640625 -16.960938 7.859375 -15.703125 L 7.859375 0 L 3.984375 0 L 3.984375 -22.140625 L 7.3125 -22.140625 L 7.640625 -18.859375 C 8.421875 -20.035156 9.394531 -20.957031 10.5625 -21.625 C 11.726562 -22.300781 13.007812 -22.640625 14.40625 -22.640625 Z M 14.40625 -22.640625 "/></g></g></g><g fill="#114c93" fill-opacity="1"><g transform="translate(185.943721, 244.341692)"><g><path d="M 33.640625 -28.9375 L 27.765625 0 L 22.640625 0 L 17.296875 -24.234375 L 11.921875 0 L 6.9375 0 L 1.046875 -28.9375 L 4.953125 -28.9375 L 9.625 -3.484375 L 15.203125 -28.9375 L 19.453125 -28.9375 L 25.15625 -3.484375 L 29.984375 -28.9375 Z M 33.640625 -28.9375 "/></g></g></g><g fill="#114c93" fill-opacity="1"><g transform="translate(220.635717, 244.341692)"><g><path d="M 7.859375 -22.140625 L 7.859375 0 L 3.984375 0 L 3.984375 -22.140625 Z M 5.890625 -32.765625 C 6.703125 -32.765625 7.359375 -32.507812 7.859375 -32 C 8.359375 -31.5 8.609375 -30.867188 8.609375 -30.109375 C 8.609375 -29.359375 8.359375 -28.738281 7.859375 -28.25 C 7.359375 -27.757812 6.703125 -27.515625 5.890625 -27.515625 C 5.097656 -27.515625 4.453125 -27.757812 3.953125 -28.25 C 3.453125 -28.738281 3.203125 -29.359375 3.203125 -30.109375 C 3.203125 -30.867188 3.453125 -31.5 3.953125 -32 C 4.453125 -32.507812 5.097656 -32.765625 5.890625 -32.765625 Z M 5.890625 -32.765625 "/></g></g></g><g fill="#114c93" fill-opacity="1"><g transform="translate(232.47971, 244.341692)"><g><path d="M 14.40625 -22.640625 C 16.425781 -22.640625 18 -22.035156 19.125 -20.828125 C 20.257812 -19.628906 20.828125 -17.976562 20.828125 -15.875 L 20.828125 0 L 16.96875 0 L 16.96875 -15.328125 C 16.96875 -16.898438 16.671875 -18.003906 16.078125 -18.640625 C 15.492188 -19.285156 14.628906 -19.609375 13.484375 -19.609375 C 12.304688 -19.609375 11.269531 -19.269531 10.375 -18.59375 C 9.476562 -17.925781 8.640625 -16.960938 7.859375 -15.703125 L 7.859375 0 L 3.984375 0 L 3.984375 -22.140625 L 7.3125 -22.140625 L 7.640625 -18.859375 C 8.421875 -20.035156 9.394531 -20.957031 10.5625 -21.625 C 11.726562 -22.300781 13.007812 -22.640625 14.40625 -22.640625 Z M 14.40625 -22.640625 "/></g></g></g><g fill="#114c93" fill-opacity="1"><g transform="translate(257.091693, 244.341692)"><g><path d="M 21.125 -31.03125 L 21.125 0 L 17.71875 0 L 17.34375 -3.0625 C 16.613281 -1.945312 15.703125 -1.070312 14.609375 -0.4375 C 13.523438 0.1875 12.3125 0.5 10.96875 0.5 C 8.332031 0.5 6.28125 -0.535156 4.8125 -2.609375 C 3.34375 -4.679688 2.609375 -7.46875 2.609375 -10.96875 C 2.609375 -13.226562 2.957031 -15.238281 3.65625 -17 C 4.351562 -18.769531 5.359375 -20.148438 6.671875 -21.140625 C 7.992188 -22.140625 9.535156 -22.640625 11.296875 -22.640625 C 13.566406 -22.640625 15.554688 -21.726562 17.265625 -19.90625 L 17.265625 -31.5 Z M 11.796875 -2.5625 C 12.972656 -2.5625 13.984375 -2.832031 14.828125 -3.375 C 15.671875 -3.925781 16.484375 -4.75 17.265625 -5.84375 L 17.265625 -16.671875 C 16.535156 -17.628906 15.753906 -18.351562 14.921875 -18.84375 C 14.097656 -19.332031 13.171875 -19.578125 12.140625 -19.578125 C 10.429688 -19.578125 9.109375 -18.859375 8.171875 -17.421875 C 7.234375 -15.992188 6.765625 -13.867188 6.765625 -11.046875 C 6.765625 -8.191406 7.195312 -6.0625 8.0625 -4.65625 C 8.925781 -3.257812 10.171875 -2.5625 11.796875 -2.5625 Z M 11.796875 -2.5625 "/></g></g></g><g fill="#114c93" fill-opacity="1"><g transform="translate(282.207673, 244.341692)"><g><path d="M 24.03125 -9.28125 C 24.03125 -7.351562 23.628906 -5.648438 22.828125 -4.171875 C 22.023438 -2.703125 20.859375 -1.554688 19.328125 -0.734375 C 17.804688 0.0859375 15.984375 0.5 13.859375 0.5 C 10.640625 0.5 8.15625 -0.382812 6.40625 -2.15625 C 4.65625 -3.9375 3.78125 -6.3125 3.78125 -9.28125 L 3.78125 -28.9375 L 7.765625 -28.9375 L 7.765625 -9.578125 C 7.765625 -7.335938 8.269531 -5.65625 9.28125 -4.53125 C 10.289062 -3.414062 11.816406 -2.859375 13.859375 -2.859375 C 15.929688 -2.859375 17.46875 -3.410156 18.46875 -4.515625 C 19.476562 -5.617188 19.984375 -7.304688 19.984375 -9.578125 L 19.984375 -28.9375 L 24.03125 -28.9375 Z M 24.03125 -9.28125 "/></g></g></g><g fill="#114c93" fill-opacity="1"><g transform="translate(310.011665, 244.341692)"><g><path d="M 8.1875 -28.9375 L 8.1875 0 L 4.203125 0 L 4.203125 -28.9375 Z M 8.1875 -28.9375 "/></g></g></g></svg>