<svg xmlns="http://www.w3.org/2000/svg" xmlns:xlink="http://www.w3.org/1999/xlink" width="500" zoomAndPan="magnify" viewBox="0 0 375 374.999991" height="500" preserveAspectRatio="xMidYMid meet" version="1.0"><defs><g/></defs><rect x="-37.5" width="450" fill="#ffffff" y="-37.499999" height="449.999989" fill-opacity="1"/><rect x="-37.5" width="450" fill="#ffffff" y="-37.499999" height="449.999989" fill-opacity="1"/><g fill="#114c93" fill-opacity="1"><g transform="translate(73.640625, 229.500631)"><g><path d="M 101.734375 0 L 88.65625 0 L 85.25 -44.1875 C 83.820312 -61.519531 83.015625 -74.828125 82.828125 -84.109375 L 61.65625 -11.078125 L 49.015625 -11.078125 L 26.703125 -84.25 C 26.703125 -72.414062 26.085938 -58.726562 24.859375 -43.1875 L 21.59375 0 L 8.8125 0 L 16.90625 -97.890625 L 35.09375 -97.890625 L 55.6875 -26.703125 L 75.296875 -97.890625 L 93.625 -97.890625 Z M 101.734375 0 "/></g></g></g><g fill="#114c93" fill-opacity="1"><g transform="translate(184.168297, 229.500631)"><g><path d="M 113.796875 -97.890625 L 93.90625 0 L 76.578125 0 L 58.53125 -81.984375 L 40.34375 0 L 23.4375 0 L 3.546875 -97.890625 L 16.765625 -97.890625 L 32.53125 -11.796875 L 51.4375 -97.890625 L 65.78125 -97.890625 L 85.109375 -11.796875 L 101.4375 -97.890625 Z M 113.796875 -97.890625 "/></g></g></g></svg>